<svg viewBox="0 0 160 160" fill="none" xmlns="http://www.w3.org/2000/svg"><path fill-rule="evenodd" clip-rule="evenodd" d="M111.135 33.003c-5.793 2.383-12.36 3.404-19.407 1.627-10.268-2.585-15.815-9.121-18.79-15.929a40.185 40.185 0 014.015-.492c3.013-.233 3.53-.806 3.952-2.767C81.327 13.482 85.04 4.45 87 4.097c1.96-.353 10.854 3.782 20.101 19.748a45.021 45.021 0 014.034 9.158zM72.809 154.05c16.886-2.849 34.875-9.763 46.404-25.219 22.629-30.331 4.261-60.076-2.509-69.172 4.11 3.587 10.42 9.795 14.555 20.007 6.442 15.896 6.832 41.57-13.691 59.496-13.149 11.485-29.279 16.218-44.76 14.888z" fill="#8E8983"/><path fill-rule="evenodd" clip-rule="evenodd" d="M112.738 52.947c-.14 1.445-.237 2.445-.109 2.903.124.447 1.018 1.202 2.382 2.355.504.427 1.072.907 1.69 1.446 6.769 9.096 25.143 38.84 2.508 69.172-11.528 15.456-29.518 22.37-46.404 25.219a59.122 59.122 0 01-24.785-7.847c-17.22-10.06-23.53-24.791-22.9-44.961.631-20.17 15.444-33.615 22.17-27.312 4.344 4.071 1.629 9.545-1.178 15.204-1.538 3.101-3.104 6.258-3.55 9.271-1.26 8.51-1.437 20.889 7.463 31.535 9.877 11.838 17.75 13.023 23.045 13.66 5.187.624 5.37.182 5.32-.908-.031-.727-.897-.824-2.575-1.011-2.425-.271-6.548-.731-12.301-3.559-8.207-4.034-18.318-15.739-18.81-27.715-.49-11.977 2.522-12.537 4.69-12.607 2.169-.07 5.528 1.26 7.842 7.356.644 1.696 1.065 2.975 1.381 3.935.82 2.49.936 2.841 2.4 2.791 1.622-.056 1.811-2.122 2.002-4.202.048-.523.096-1.047.167-1.541.347-2.452 4.482-10.923 15.966-10.923 11.485 0 16.458 9.385 17.58 12.329.44 1.153.814 2.435 1.145 3.568.514 1.758.923 3.158 1.307 3.158.63 0 1.468-4.69-1.752-10.785-3.221-6.096-9.273-11.907-20.114-11.907-6.051 0-9.293 1.31-12.157 2.467-2.267.916-4.299 1.737-7.301 1.737-6.789 0-8.402-6.933-4.62-11.699 3.781-4.759 18.91-10.085 31.163-10.223 5.654-.064 9.519.289 12.077.523 2.986.273 4.19.383 4.38-.523.353-1.683-4.412-2.73-11.623-3.152-7.217-.422-19.754 1.538-23.044 2.73-.636.229-1.309.48-1.991.734-2.854 1.065-5.885 2.195-7.187 2.14-1.607-.07-9.455-5.396-12.814-13.099-3.366-7.702-6.165-14.497-5.535-27.734.63-13.237 1.286-16.237 3.53-16.937 2.238-.7 7.69 2.307 10.092 4.192l.272.213.001.001c2.149 1.686 3.836 3.01 6.225 1.563 5.749-3.479 9.859-5.055 14.145-5.805 2.975 6.808 8.522 13.344 18.79 15.935 7.053 1.777 13.615.756 19.407-1.627 2.706 8.677 1.996 15.98 1.61 19.94zm-29.372-7.861c.22.063 1.494.41 3.196.41 1.084 0 2.345-.145 3.618-.587 3.391-1.19 4.425-2.956 4.923-3.807l.075-.132a2.214 2.214 0 00-.718-3.038 2.214 2.214 0 00-3.038.718l-.133.221c-.296.517-.712 1.216-2.572 1.872-1.858.65-3.872.163-4.107.106a2.206 2.206 0 00-2.744 1.502 2.203 2.203 0 001.5 2.735zm-27.74 10.163c-1.702 0-2.975-.347-3.19-.41a2.203 2.203 0 01-1.5-2.736 2.206 2.206 0 012.723-1.506c.063.019 2.181.58 4.129-.101 1.86-.656 2.275-1.355 2.572-1.872l.132-.22a2.209 2.209 0 013.757 2.319l-.076.132c-.498.851-1.532 2.616-4.923 3.807-1.28.441-2.54.587-3.624.587zm31.06-.608c.283-.486.774-.832 1.354-.832.864 0 1.564.73 1.564 1.62 0 .29-.076.56-.208.794-.158.27-.41.674-.725 1.04-.92 1.078-2.692 2.427-5.894 2.767-2.187.233-4.172-.41-5.679-1.38a6.22 6.22 0 01-.1.403c-.568 2.042-2.112 3.517-4.609 4.393-1.43.505-2.66.681-3.68.681-1.375 0-2.37-.321-2.963-.592a1.573 1.573 0 111.31-2.862c.486.22 1.88.65 4.287-.196 2.2-.768 2.49-1.808 2.61-2.256.277-1.015.403-2.37.321-2.906-.006-.044-.006-.094-.006-.138a11.447 11.447 0 01-2.244-.505c-1.759-.599-2.168-1.31-2.307-1.966-.265-1.261 1.973-2.61 3.889-3.152 2.13-.605 4.948-1.172 5.56.284.67 1.611-.337 2.775-.995 3.535-.078.09-.151.174-.216.253a9.413 9.413 0 01-.712.775c.005.01.01.02.017.03a.38.38 0 01.027.052c.334.807 2.351 2.717 5.156 2.42 1.72-.182 3.045-.762 3.826-1.676.196-.233.328-.429.416-.586z" fill="#fff"/></svg>