<svg viewBox="0 0 752 365" fill="none" xmlns="http://www.w3.org/2000/svg">
<path fill-rule="evenodd" clip-rule="evenodd" d="M378.859 135.006C463.342 137.46 543.33 146.569 609.878 162.343C674.35 177.625 726.557 197.921 745.387 221.887C763.338 244.735 735.378 267.55 709.983 289.755C685.009 311.593 661.677 334.828 600.267 348.783C538.227 362.881 456.744 364.997 378.859 364.999C300.967 365.001 212.121 365.398 157.421 348.795C104.001 332.582 136.661 305.038 110.751 283.625C83.3357 260.968 2.36511 245.051 2.72974 220.953C3.14408 193.571 40.1011 164.519 112.805 147.906C186.013 131.177 287.195 132.344 378.859 135.006Z" fill="url(#paint0_linear)"/>
<path fill-rule="evenodd" clip-rule="evenodd" d="M377.962 126.559C462.856 129.013 543.234 138.121 610.106 153.896C674.892 169.178 727.354 189.474 746.275 213.44C764.313 236.288 736.217 259.102 710.698 281.308C685.603 303.146 662.157 326.381 600.448 340.336C538.106 354.433 456.226 356.549 377.962 356.552C299.691 356.554 210.412 356.95 155.445 340.348C101.766 324.135 134.584 296.59 108.548 275.178C80.9997 252.521 -0.365174 236.604 0.00123351 212.506C0.417586 185.124 37.5545 156.071 110.612 139.458C184.177 122.73 285.852 123.897 377.962 126.559Z" fill="#0E0E0E"/>
<path fill-rule="evenodd" clip-rule="evenodd" d="M377.962 126.559C462.856 129.013 543.234 138.121 610.106 153.896C674.892 169.178 727.354 189.474 746.275 213.44C764.313 236.288 736.217 259.102 710.698 281.308C685.603 303.146 662.157 326.381 600.448 340.336C538.106 354.433 456.226 356.549 377.962 356.552C299.691 356.554 210.412 356.95 155.445 340.348C101.766 324.135 134.584 296.59 108.548 275.178C80.9997 252.521 -0.365174 236.604 0.00123351 212.506C0.417586 185.124 37.5545 156.071 110.612 139.458C184.177 122.73 285.852 123.897 377.962 126.559Z" fill="url(#paint1_linear)"/>
<path d="M269.366 205.799C269.366 205.799 256.75 209.35 251.427 198.235C246.647 188.246 249.648 182.295 250.911 173.607C247.068 177.28 240.658 179.11 235.633 174.393C226.806 166.111 242.124 142.16 248.684 123.794C258.638 95.9258 261.558 80.0264 264.22 70.7822C267.085 60.8468 283.232 68.0035 284.441 85.9904C285.364 99.6669 271.159 131.927 271.159 131.927C271.159 131.927 318.024 132.835 269.366 205.799Z" fill="white"/>
<path d="M276.101 68.708C276.101 68.708 271.131 105.034 266.731 117.125C262.331 129.215 259.954 161.746 269.243 141.197C278.518 120.635 284.032 94.448 284.263 90.9374C284.494 87.4268 285.784 76.9763 276.101 68.708Z" fill="#E6E6E6"/>
<path d="M269.76 206.354C269.638 206.422 269.393 206.503 269.339 206.503L269.149 206.544L268.769 206.612C268.524 206.652 268.266 206.693 268.022 206.72C267.519 206.788 267.03 206.815 266.528 206.842C265.536 206.91 264.545 206.896 263.554 206.815C261.571 206.652 259.602 206.219 257.782 205.365C255.962 204.524 254.36 203.25 253.07 201.719L252.16 200.526C251.888 200.106 251.657 199.672 251.413 199.238C250.883 198.384 250.544 197.462 250.136 196.581C248.643 192.949 247.977 188.923 248.385 184.992C248.765 181.075 249.743 177.307 250.232 173.525L251.372 174.108C249.756 175.721 247.787 177.036 245.519 177.7C243.292 178.405 240.739 178.391 238.457 177.51C237.33 177.076 236.257 176.467 235.334 175.707C234.383 174.989 233.514 173.973 232.93 172.875C231.722 170.638 231.532 168.158 231.627 165.867C231.885 161.231 233.256 156.948 234.709 152.787C236.217 148.626 237.969 144.613 239.72 140.615C241.472 136.616 243.238 132.658 244.867 128.66C245.682 126.654 246.429 124.661 247.149 122.642C247.869 120.595 248.615 118.562 249.308 116.501C252.146 108.301 254.686 100.019 257.09 91.6831C258.285 87.5084 259.398 83.32 260.485 79.1045L262.182 72.7746L262.63 71.1887L262.861 70.389L263.187 69.4944C263.676 68.3151 264.45 67.163 265.55 66.3226C266.65 65.4823 268.022 65.0621 269.325 65.0079C270.629 64.9401 271.892 65.1976 273.033 65.6178C275.341 66.4582 277.243 67.9221 278.845 69.5893C282.05 72.9644 283.978 77.2747 284.848 81.6934C285.296 83.9028 285.459 86.1529 285.364 88.43C285.323 89.5551 285.16 90.653 285.051 91.7645C284.902 92.8624 284.685 93.9467 284.494 95.0311C283.625 99.355 282.43 103.57 281.113 107.745C278.438 116.068 275.246 124.2 271.77 132.211V132.225L271.159 131.276C275.097 131.506 278.859 132.618 282.267 134.556C283.951 135.545 285.486 136.779 286.83 138.202C288.175 139.625 289.207 141.32 290.076 143.068C291.678 146.647 292.194 150.577 292.086 154.413C291.977 158.263 291.298 162.045 290.266 165.718C288.256 173.078 285.133 180.045 281.602 186.741C278.044 193.423 274.16 199.807 269.76 206.354ZM268.959 205.256C272.843 199.184 276.917 192.732 280.407 186.09C283.911 179.449 286.98 172.549 288.962 165.338C289.981 161.746 290.646 158.06 290.741 154.359C290.85 150.672 290.348 146.945 288.854 143.61C288.039 141.984 287.102 140.425 285.839 139.097C284.59 137.782 283.164 136.63 281.588 135.695C278.424 133.892 274.744 132.821 271.145 132.604L270.154 132.55L270.534 131.655V131.642C273.902 123.645 276.985 115.498 279.538 107.217C280.801 103.069 281.941 98.8941 282.729 94.6651C282.892 93.6079 283.096 92.5506 283.232 91.4934C283.313 90.4361 283.462 89.3789 283.49 88.3216C283.53 86.2478 283.327 84.1197 282.851 82.0865C281.955 78.0066 280.04 74.1165 277.148 71.2158C275.708 69.7926 274.011 68.5863 272.191 67.9899C270.385 67.3664 268.443 67.4341 267.193 68.4507C266.569 68.9522 266.093 69.6706 265.767 70.511L265.55 71.1616L265.346 71.9342L264.939 73.493L263.418 79.823C262.413 84.0655 261.381 88.308 260.281 92.537C258.108 101.009 255.501 109.358 252.717 117.64C252.038 119.714 251.291 121.774 250.585 123.834C249.851 125.908 249.023 127.969 248.167 130.002C246.456 134.055 244.623 138.012 242.817 141.97C241.011 145.928 239.259 149.886 237.683 153.871C236.135 157.843 234.696 161.936 234.343 166.016C234.193 168.036 234.315 170.069 235.144 171.722C235.565 172.563 236.081 173.268 236.841 173.918C237.561 174.596 238.39 175.111 239.272 175.518C242.844 177.171 247.339 175.857 250.422 173.132L251.929 171.79L251.562 173.715C250.965 177.578 249.838 181.305 249.471 185.087C249.05 188.869 249.648 192.664 251.06 196.202C251.454 197.069 251.78 197.978 252.269 198.764C252.499 199.17 252.703 199.591 252.961 199.984L253.803 201.095C254.998 202.518 256.465 203.725 258.162 204.524C259.874 205.297 261.734 205.704 263.608 205.798C264.545 205.839 265.496 205.799 266.433 205.704C266.894 205.636 267.37 205.568 267.818 205.473C268.049 205.433 268.28 205.378 268.497 205.324L268.836 205.243L268.999 205.202C269.094 205.175 268.959 205.216 268.959 205.256Z" fill="black"/>
<path d="M579.594 80.6494C579.594 80.6494 600.942 81.7744 604.799 84.4853C608.642 87.1962 607.949 106.85 606.143 110.239" fill="white"/>
<path d="M579.594 80.6494C583.953 80.5681 588.312 80.7172 592.658 81.1102C594.831 81.3 597.004 81.5711 599.177 81.9235C600.263 82.1133 601.349 82.3437 602.436 82.6419C603.509 82.9672 604.622 83.2247 605.749 84.2007C606.659 85.2444 607.012 86.3829 607.325 87.4673C607.623 88.5652 607.827 89.6631 607.949 90.7746C608.194 92.984 608.302 95.1798 608.248 97.3621C608.207 99.5579 608.058 101.74 607.773 103.909C607.61 104.993 607.433 106.078 607.202 107.135C606.958 108.192 606.7 109.29 606.143 110.239C606.795 108.179 606.849 105.983 606.944 103.841C607.026 101.686 607.012 99.5308 606.931 97.3892C606.822 95.2476 606.7 93.106 606.374 91.005C606.211 89.9613 606.021 88.9176 605.736 87.9281C605.464 86.9522 605.057 85.9763 604.527 85.3799C604.405 85.2715 604.269 85.1495 604.052 85.041C603.848 84.9461 603.672 84.8106 603.441 84.7293C602.952 84.5666 602.517 84.3498 601.988 84.2413C600.983 83.9431 599.937 83.7262 598.891 83.5094C596.786 83.0621 594.654 82.7639 592.509 82.425L579.594 80.6494Z" fill="black"/>
<path d="M477.824 80.6498C476.805 73.5336 477.484 64.1539 490.494 56.9294C491.893 50.6536 502.852 46.14 514.708 48.2952C523.019 49.7997 530.311 52.9172 541.868 58.583C571.066 71.4598 592.115 80.4193 607.963 102.554C623.811 124.688 629.244 141.415 621.095 167.615C612.947 193.816 595.524 199.021 581.713 200.594C567.902 202.179 522.869 185.453 519.923 178.676C516.976 171.912 480.445 99.0161 477.824 80.6498Z" fill="white"/>
<path d="M549.269 175.017C549.269 175.017 583.301 186.253 600.154 177.687C608.642 179.828 606.266 183.895 617.917 184.464C617.659 190.252 613.395 193.234 610.557 192.746C607.719 192.258 605.763 191.716 605.804 191.675C605.845 191.634 591.314 202.871 575.642 200.16C559.971 197.449 548.373 193.546 548.373 193.546L549.269 175.017Z" fill="#E6E6E6"/>
<path d="M476.561 80.8254C476.248 78.3585 476.153 75.8103 476.52 73.2756C476.927 70.768 477.769 68.2875 479.114 66.1324C480.431 63.9636 482.156 62.0931 484.057 60.5073C485.999 58.962 488.118 57.7014 490.304 56.6171L490.127 56.8475C490.087 55.6141 490.521 54.3535 491.2 53.2963C491.879 52.2254 492.762 51.3173 493.753 50.5854C495.736 49.1215 498.004 48.1997 500.285 47.522C504.876 46.2208 509.71 46.031 514.382 46.8036C523.643 48.3217 532.063 52.361 540.211 56.346C542.208 57.3762 544.285 58.2707 546.35 59.206L552.556 62.0118C556.684 63.9094 560.826 65.8071 564.9 67.8267C573.076 71.8253 581.101 76.2847 588.489 81.7065C592.156 84.458 595.632 87.44 598.892 90.6525C599.693 91.4657 600.467 92.3197 601.255 93.1465C602.056 93.9598 602.803 94.8272 603.522 95.7218C604.242 96.6029 605.016 97.4568 605.722 98.3514L607.787 101.089C613.151 108.436 618.067 116.189 621.503 124.701C624.979 133.186 626.269 142.58 625.346 151.702C624.898 156.27 623.974 160.77 622.766 165.189C621.543 169.58 620.05 173.972 617.945 178.079C615.88 182.2 613.232 186.09 609.959 189.424C606.7 192.759 602.803 195.497 598.566 197.462C594.329 199.441 589.779 200.634 585.216 201.352C584.076 201.542 582.935 201.691 581.78 201.826C580.545 201.962 579.363 201.949 578.182 201.894C575.832 201.772 573.537 201.447 571.269 201.027C562.211 199.319 553.493 196.581 544.91 193.463C540.619 191.878 536.382 190.17 532.213 188.258C530.135 187.296 528.071 186.279 526.047 185.154C524.024 184.002 522.027 182.85 520.153 181.129C519.692 180.681 519.23 180.194 518.836 179.475L518.7 179.19L518.619 179.001L518.456 178.621L518.103 177.862L516.65 174.799L513.689 168.672L507.782 156.419C503.857 148.232 499.987 140.032 496.198 131.777C492.409 123.536 488.742 115.227 485.252 106.823C483.527 102.621 481.871 98.3785 480.336 94.0817C478.829 89.8256 477.335 85.5289 476.561 80.8254ZM479.073 80.473C479.82 84.7291 481.341 89.0259 482.876 93.2414C484.437 97.4704 486.135 101.645 487.873 105.82C491.35 114.17 495.043 122.424 498.792 130.679C502.54 138.92 506.383 147.12 510.28 155.307L516.147 167.574L519.08 173.714L520.534 176.805L521.213 178.282C521.362 178.567 521.674 178.933 522.027 179.258C523.494 180.627 525.436 181.806 527.351 182.891C529.293 183.975 531.303 184.965 533.34 185.914C537.414 187.798 541.597 189.505 545.82 191.078C554.28 194.182 562.931 196.92 571.731 198.601C573.931 199.007 576.145 199.319 578.318 199.441C579.404 199.495 580.49 199.495 581.522 199.4C582.622 199.278 583.736 199.129 584.836 198.953C589.25 198.289 593.541 197.11 597.574 195.32C601.594 193.518 605.274 191.01 608.398 187.892C611.535 184.788 614.101 181.129 616.152 177.184C618.23 173.24 619.737 169.025 621 164.714C622.25 160.404 623.2 156.012 623.703 151.553C624.164 147.107 624.232 142.607 623.608 138.175C623.01 133.742 621.829 129.405 620.185 125.23C616.913 116.867 611.929 109.222 606.605 101.97C603.971 98.3243 600.929 94.9899 597.764 91.8046C594.519 88.6871 591.069 85.8135 587.43 83.1703C580.097 77.9519 572.139 73.6551 563.963 69.7921C559.889 67.8402 555.747 66.0104 551.592 64.1805L545.345 61.4696C543.253 60.5615 541.148 59.6804 539.098 58.6638C530.936 54.8008 522.679 51.0462 513.934 49.6094C509.656 48.9181 505.188 48.9723 501.019 50.0974C498.941 50.6531 496.958 51.507 495.206 52.6456C493.455 53.7842 491.92 55.0854 490.834 57.0102L490.806 57.1457L490.657 57.2406C488.674 58.5961 486.719 59.9515 485.048 61.6187C483.364 63.2452 481.898 65.0751 480.839 67.1083C479.793 69.1415 479.1 71.3237 478.842 73.5873C478.598 75.8509 478.72 78.1688 479.073 80.473Z" fill="black"/>
<path d="M618.597 131.709C618.597 131.709 620.444 131.086 627.193 134.42C634.513 138.039 662.841 162.844 663.072 169.852C663.303 176.859 645.296 188.638 629.461 191.119C613.613 193.599 604.786 193.423 603.428 189.221" fill="white"/>
<path d="M605.817 191.675C605.776 191.702 607.732 192.244 610.57 192.746C613.408 193.234 628.482 191.878 638.6 188.801C648.717 185.724 656.254 179.394 656.254 179.394C656.254 179.394 663.642 172.617 662.175 169.229C659.228 174.081 629.582 185.047 617.931 184.477C606.279 183.908 608.655 179.842 600.168 177.7C599.597 185.792 597.791 188.354 597.791 188.354L605.817 191.675Z" fill="#E6E6E6"/>
<path d="M618.597 131.71C619.941 131.344 621.367 131.696 622.671 132.008C624.002 132.347 625.292 132.821 626.541 133.363C629.122 134.434 631.335 136.088 633.535 137.646C637.908 140.845 642.091 144.275 646.165 147.839C650.239 151.391 654.15 155.145 657.817 159.185C659.65 161.218 661.388 163.319 662.896 165.759C663.262 166.382 663.615 167.019 663.914 167.737C664.064 168.09 664.186 168.483 664.294 168.903C664.389 169.323 664.444 169.852 664.403 170.259C664.308 172.034 663.52 173.417 662.733 174.65C661.062 177.077 658.944 178.947 656.757 180.641C654.557 182.322 652.235 183.813 649.831 185.128C644.997 187.73 639.891 189.818 634.554 191.105C631.892 191.77 629.149 192.122 626.473 192.461C623.785 192.786 621.096 193.071 618.38 193.233C615.677 193.396 612.947 193.464 610.204 193.193C608.846 193.044 607.461 192.8 606.157 192.23C605.519 191.932 604.894 191.553 604.392 191.051C603.889 190.536 603.523 189.899 603.428 189.221C604.066 190.455 605.234 191.105 606.456 191.444C607.692 191.81 608.996 191.973 610.299 192.068C612.934 192.23 615.609 192.054 618.257 191.797C620.919 191.526 623.567 191.146 626.215 190.712C628.877 190.279 631.471 189.831 634.01 189.086C639.076 187.622 644.006 185.548 648.568 182.905C650.864 181.604 653.077 180.167 655.128 178.554C657.165 176.955 659.107 175.152 660.478 173.146C661.144 172.156 661.687 171.058 661.701 170.123C661.796 169.364 661.212 168.185 660.587 167.128C659.283 164.972 657.559 162.926 655.848 160.92C652.357 156.921 648.528 153.18 644.657 149.493C640.76 145.833 636.74 142.269 632.544 138.961C630.425 137.335 628.32 135.695 625.971 134.556C624.789 133.96 623.594 133.377 622.386 132.821C621.775 132.55 621.164 132.32 620.539 132.103C619.914 131.899 619.276 131.71 618.597 131.71Z" fill="black"/>
<path d="M616.844 181.685C616.844 181.685 615.527 156.338 622.942 145.48C634.675 152.786 646.449 168.957 646.449 168.957C646.449 168.957 621.53 186.036 616.844 181.685Z" fill="#FFB1AF"/>
<path d="M564.561 80.8799L570.373 81.91C570.889 82.0049 571.31 82.3573 571.473 82.8453C572.356 85.5562 576.905 95.8982 589.915 106.173C576.905 100.412 568.431 89.9749 567.616 84.0787C567.521 83.401 567.154 82.8182 566.584 82.4386C565.43 81.7067 564.561 80.8799 564.561 80.8799Z" fill="black"/>
<path d="M515.277 48.4037C515.277 48.4037 518.984 49.095 522.529 51.0604C528.368 54.3135 535.09 59.6675 533.963 60.9958C532.184 63.0968 520.274 53.8797 517.219 56.0891C514.163 58.2985 512.574 55.4656 513.376 53.7713C514.163 52.077 509.424 47.7666 509.424 47.7666L515.277 48.4037Z" fill="black"/>
<path d="M490.494 56.9294C492.3 58.2713 494.297 59.2879 496.347 59.9927C498.411 60.6705 500.557 60.9822 502.648 60.7789C504.74 60.6162 506.736 59.8979 508.542 58.8813C510.362 57.8511 511.992 56.4686 513.485 54.9505L517.668 50.6943L515.658 56.333C514.667 59.1252 513.839 61.8633 514.124 64.5064C514.422 67.1495 515.781 69.6571 517.614 71.8665C519.42 74.1165 521.634 76.0955 523.915 78.0067C525.056 78.9284 526.251 79.9314 527.405 80.7718C528.627 81.5308 529.999 82.2086 531.466 82.5339C529.931 82.5475 528.424 82.1408 526.984 81.5444C525.585 80.7989 524.309 80.0534 523.032 79.213C520.479 77.5458 518.021 75.6753 515.876 73.3846C513.784 71.0939 511.897 68.2068 511.489 64.8181C511.285 63.1509 511.408 61.4566 511.761 59.8979C512.114 58.3255 512.644 56.8481 513.173 55.4249L515.346 56.7939C513.703 58.4611 511.774 59.8978 509.642 60.9822C507.524 62.0937 505.093 62.6765 502.703 62.6901C500.299 62.6901 497.95 62.0937 495.885 61.0635C493.835 60.0198 491.974 58.6373 490.494 56.9294Z" fill="black"/>
<path d="M540.008 73.8858C543.077 74.5364 545.739 75.8241 548.373 77.2338C550.967 78.6976 553.412 80.3784 555.72 82.2354C558.042 84.0788 560.188 86.1119 562.32 88.118L568.676 94.2311C577.082 102.445 585.352 110.768 593.596 119.131C585.203 110.93 576.756 102.757 568.2 94.7191L561.736 88.7415C559.563 86.7626 557.404 84.7972 555.082 83.0351C552.773 81.2594 550.342 79.6464 547.789 78.2774C545.25 76.9491 542.507 75.7427 539.804 75.2277L539.736 75.2141C539.37 75.1463 539.125 74.7939 539.193 74.4144C539.274 74.0484 539.628 73.8045 540.008 73.8858C540.008 73.8722 540.008 73.8722 540.008 73.8858Z" fill="black"/>
<path d="M502.92 55.0182C498.329 50.5317 493.345 46.3704 488.28 42.3447C483.187 38.3462 477.986 34.4832 472.636 30.8506L440.627 8.74316L473.016 30.2948C478.434 33.8461 483.731 37.6278 488.905 41.545C494.065 45.503 499.117 49.5693 503.884 54.0559C504.155 54.3134 504.169 54.7471 503.911 55.0182C503.653 55.2893 503.218 55.3028 502.947 55.0453L502.92 55.0182Z" fill="black"/>
<path d="M538.676 78.2372C543.266 82.3036 547.19 86.9257 550.667 91.8866C554.157 96.834 557.023 102.215 559.291 107.8C561.531 113.398 563.351 119.158 564.872 124.973C566.407 130.788 567.697 136.671 568.729 142.608C567.602 136.698 566.203 130.842 564.546 125.068C562.916 119.28 560.988 113.587 558.666 108.057C556.316 102.54 553.383 97.2949 549.839 92.4695C546.321 87.6576 542.315 83.1168 537.807 79.2809L537.779 79.2538C537.494 79.0098 537.467 78.5896 537.698 78.305C537.956 78.0204 538.39 77.9933 538.676 78.2372Z" fill="black"/>
<path d="M508.746 51.5481C507.945 49.0948 506.695 46.6279 505.351 44.31C504.006 41.9787 502.499 39.7151 500.897 37.5328C497.705 33.1547 493.998 29.1425 490.399 25.0626C483.12 16.957 475.692 8.97345 468.195 1.05762C475.855 8.82435 483.446 16.6453 490.901 24.6018C494.582 28.6139 498.384 32.5583 501.711 36.9228C503.382 39.0915 504.957 41.3551 506.383 43.7001C507.795 46.0721 509.099 48.4577 510.05 51.1686C510.172 51.521 509.982 51.9141 509.629 52.0361C509.276 52.1581 508.882 51.9683 508.76 51.6159C508.76 51.6159 508.76 51.6159 508.76 51.6024L508.746 51.5481Z" fill="black"/>
<path d="M616.844 181.685C617.346 182.173 618.052 182.268 618.718 182.281C619.383 182.295 620.062 182.187 620.714 182.065C622.031 181.793 623.322 181.387 624.584 180.912C627.11 179.964 629.555 178.798 631.918 177.497C634.281 176.209 636.576 174.786 638.776 173.254C640.962 171.709 643.067 170.042 644.901 168.198C645.43 167.67 646.286 167.656 646.829 168.185C647.359 168.713 647.372 169.567 646.843 170.109C646.815 170.137 646.788 170.164 646.761 170.191C644.588 172.021 642.266 173.552 639.889 174.962C637.499 176.358 635.041 177.605 632.529 178.717C630.017 179.828 627.45 180.804 624.802 181.563C623.484 181.929 622.14 182.241 620.768 182.403C620.089 182.471 619.397 182.525 618.704 182.458C618.039 182.39 617.305 182.214 616.844 181.685Z" fill="black"/>
<path d="M622.941 145.48C628.075 148.788 632.923 152.583 637.432 156.758C639.686 158.859 641.804 161.095 643.828 163.454C645.811 165.839 647.63 168.388 649.233 171.112C649.613 171.763 649.396 172.589 648.744 172.969C648.092 173.349 647.264 173.132 646.883 172.481C646.87 172.454 646.856 172.427 646.843 172.4L646.829 172.359C645.525 169.716 643.977 167.154 642.239 164.714C640.46 162.302 638.545 159.957 636.481 157.734C632.339 153.288 627.817 149.167 622.941 145.48Z" fill="black"/>
<path d="M277.962 225.683C277.962 225.683 248.995 209.865 255.555 154.752C262.114 99.6395 299.242 78.1691 329.119 66.2005C358.995 54.2319 452.468 42.9003 499.999 94.8683C547.53 146.836 566.461 182.091 531.682 220.939C498.261 258.295 354.772 295.339 277.962 225.683Z" fill="white"/>
<path d="M277.528 226.292C275.763 225.249 274.052 223.825 272.517 222.402C270.956 220.952 269.543 219.38 268.185 217.753C265.469 214.486 263.364 210.8 261.422 207.059C260.567 205.134 259.711 203.209 258.951 201.244C258.312 199.238 257.579 197.259 257.022 195.225L255.583 189.085L254.646 182.85C254.456 181.82 254.428 180.763 254.347 179.719L254.143 176.574C254.075 175.531 253.994 174.487 253.953 173.43L253.994 170.285C254.035 168.184 253.994 166.097 254.102 163.996L254.632 157.734L254.89 154.603L255.379 151.499L256.357 145.291C256.751 143.23 257.321 141.211 257.783 139.164C258.272 137.131 258.733 135.071 259.467 133.105L261.463 127.128C262.251 125.189 263.12 123.265 263.948 121.34C264.383 120.391 264.736 119.388 265.252 118.48L266.759 115.715C267.791 113.885 268.674 111.974 269.91 110.252C274.283 103.055 279.891 96.6707 286.057 90.9778C298.456 79.5513 313.543 71.5 329.079 65.3327C333.004 63.7739 337.037 62.5676 341.111 61.5103C345.172 60.4395 349.273 59.5585 353.401 58.813C361.658 57.3084 369.983 56.2782 378.348 55.7225C395.079 54.6246 411.946 55.221 428.5 58.0539C445.027 60.8868 461.31 66.0239 475.922 74.4548C483.215 78.6567 490.059 83.6855 496.157 89.5003L500.584 94.014L504.807 98.6496C507.605 101.754 510.362 104.898 513.091 108.056C518.537 114.4 523.82 120.893 528.763 127.67C533.693 134.447 538.337 141.468 542.126 148.991C543.117 150.848 543.946 152.786 544.828 154.697C545.616 156.663 546.458 158.601 547.096 160.607C548.468 164.606 549.568 168.726 550.098 172.942C551.252 181.359 550.396 190.115 547.341 198.058C545.847 202.03 543.973 205.866 541.691 209.431C539.451 213.023 536.925 216.425 534.168 219.61C528.722 226.143 521.864 231.321 514.68 235.672C507.483 240.05 499.878 243.669 492.124 246.868C484.356 250.04 476.438 252.846 468.372 255.123C460.319 257.441 452.17 259.433 443.927 260.951C439.826 261.792 435.67 262.388 431.528 263.039C429.464 263.364 427.373 263.567 425.295 263.838C423.217 264.082 421.14 264.381 419.048 264.53C402.372 266.088 385.519 266.251 368.842 264.353C360.49 263.527 352.233 261.981 344.058 260.124C340.011 259.04 335.91 258.118 331.944 256.736C329.948 256.072 327.938 255.502 325.969 254.784L320.089 252.534C318.106 251.829 316.219 250.934 314.304 250.067C312.402 249.186 310.461 248.373 308.586 247.424L303.032 244.455C302.109 243.94 301.158 243.493 300.275 242.937L297.6 241.27C295.821 240.145 294.028 239.074 292.277 237.909L287.184 234.208C286.342 233.585 285.473 232.988 284.644 232.338L282.254 230.332L277.528 226.292ZM278.398 225.072L283.205 229.112L285.609 231.131C286.423 231.768 287.279 232.351 288.121 232.975L293.159 236.621C294.884 237.773 296.677 238.83 298.428 239.928L301.077 241.568C301.959 242.124 302.896 242.558 303.806 243.059L309.306 245.987C311.167 246.922 313.082 247.722 314.969 248.59C316.857 249.443 318.744 250.338 320.7 251.029L326.526 253.252C328.482 253.971 330.478 254.526 332.447 255.177C336.385 256.532 340.446 257.441 344.465 258.498C352.573 260.328 360.762 261.832 369.046 262.646C385.586 264.489 402.317 264.299 418.885 262.713C420.963 262.564 423.027 262.266 425.091 262.022C427.156 261.751 429.233 261.548 431.284 261.222C435.399 260.558 439.514 259.975 443.588 259.121C451.777 257.603 459.857 255.611 467.856 253.279C475.854 251.002 483.704 248.21 491.39 245.052C499.063 241.867 506.573 238.275 513.635 233.951C520.71 229.64 527.337 224.612 532.579 218.268C535.282 215.137 537.726 211.816 539.899 208.319C542.112 204.849 543.905 201.149 545.331 197.313C548.251 189.668 549.052 181.319 547.925 173.226C547.395 169.174 546.349 165.189 545.032 161.299C544.407 159.347 543.593 157.449 542.832 155.538C541.963 153.667 541.162 151.77 540.198 149.94C536.49 142.553 531.927 135.599 527.052 128.876C522.177 122.153 516.935 115.688 511.516 109.358C508.8 106.199 506.057 103.068 503.273 99.9644L499.077 95.3423L494.745 90.91C488.769 85.19 482.074 80.2562 474.917 76.1085C460.563 67.7996 444.511 62.6895 428.161 59.8431C411.783 57.0102 395.038 56.3867 378.43 57.4304C370.132 57.9726 361.848 58.9756 353.673 60.4395C349.585 61.1714 345.511 62.0389 341.491 63.0826C337.472 64.1128 333.493 65.3056 329.649 66.8101C314.209 72.8961 299.284 80.839 287.062 92.0622C280.978 97.6602 275.451 103.936 271.132 110.998C269.91 112.679 269.041 114.563 268.022 116.365L266.528 119.09C266.026 119.998 265.673 120.974 265.238 121.909C264.423 123.807 263.554 125.691 262.78 127.602L260.798 133.485C260.064 135.423 259.616 137.456 259.127 139.462C258.652 141.482 258.095 143.474 257.701 145.508L256.723 151.648L256.235 154.725L255.963 157.829L255.433 164.023C255.325 166.097 255.379 168.171 255.338 170.245L255.311 173.349C255.352 174.379 255.447 175.409 255.515 176.452L255.732 179.556C255.814 180.587 255.841 181.63 256.031 182.647L256.954 188.787L258.38 194.819C258.937 196.811 259.657 198.75 260.282 200.701C261.042 202.613 261.87 204.51 262.712 206.381C266.433 213.727 271.431 220.627 278.398 225.072Z" fill="black"/>
<path d="M298.035 229.518C298.035 229.518 278.832 201.664 237.073 215.056C194.825 228.61 168.574 234.628 154.681 208.428C140.734 182.105 181.244 165.961 178.216 125.894C175.486 89.6631 140.354 93.4177 143.817 122.885C147.742 156.324 104.584 171.98 120.581 217.767C135.044 259.149 174.604 273.191 214.733 261.738C254.876 250.298 283.544 243.669 317.943 251.802" fill="white"/>
<path d="M298.034 229.519C295.942 226.943 293.498 224.693 290.891 222.687C289.614 221.644 288.202 220.79 286.83 219.882C286.137 219.434 285.391 219.082 284.684 218.662C283.965 218.282 283.272 217.821 282.525 217.496C276.631 214.595 270.181 212.969 263.676 212.454C257.144 211.884 250.584 212.752 244.202 214.094C237.887 215.72 231.572 217.875 225.216 219.787C218.861 221.698 212.451 223.514 205.946 224.978C199.441 226.415 192.814 227.553 186.051 227.621C179.356 227.675 172.335 226.564 166.441 222.931C160.52 219.366 156.202 213.755 153.255 207.682C151.775 204.606 150.865 201.19 150.81 197.72C150.742 194.25 151.503 190.834 152.698 187.662C155.156 181.305 158.999 175.775 162.557 170.218C166.156 164.674 169.66 159.09 172.294 153.099C174.97 147.148 176.735 140.791 177.21 134.298C177.292 133.485 177.346 132.685 177.346 131.872L177.387 129.432C177.292 127.806 177.305 126.179 177.088 124.566C176.776 121.34 176.151 118.128 175.092 115.092C174.033 112.055 172.552 109.168 170.529 106.729C168.492 104.316 165.898 102.364 162.937 101.402C159.991 100.439 156.731 100.521 153.893 101.74C151.028 102.92 148.719 105.21 147.157 107.908C145.636 110.659 144.835 113.79 144.631 116.976C144.523 118.562 144.536 120.175 144.699 121.774L144.889 124.255C144.944 125.095 145.039 125.949 145.012 126.803C145.175 133.634 143.083 140.317 140.191 146.335C137.271 152.394 133.563 157.937 130.1 163.563C126.651 169.174 123.337 174.881 121.124 181.021C119.997 184.071 119.114 187.215 118.625 190.428C118.096 193.626 117.865 196.88 118.041 200.119C118.258 206.612 119.807 213.037 122.17 219.136L124.003 223.69L124.465 224.829L125.035 225.913L126.176 228.082L127.316 230.251C127.683 230.983 128.063 231.701 128.539 232.365L131.241 236.459C135.098 241.691 139.457 246.665 144.74 250.528L146.655 252.046L148.719 253.361C150.118 254.215 151.449 255.15 152.888 255.923L157.275 258.105L158.375 258.647L159.515 259.081L161.81 259.949C164.825 261.236 168.044 261.887 171.194 262.782L176.029 263.622C176.844 263.744 177.631 263.934 178.446 264.015L180.891 264.218C187.409 264.95 194.009 264.517 200.514 263.771C203.746 263.202 207.019 262.809 210.183 261.928C211.786 261.535 213.375 261.169 214.977 260.748L219.771 259.406C226.167 257.631 232.577 255.896 239.028 254.324C245.478 252.724 251.983 251.301 258.529 250.162C261.802 249.552 265.102 249.119 268.402 248.658C271.715 248.305 275.029 247.926 278.356 247.763C285.01 247.384 291.692 247.357 298.346 247.966C304.987 248.563 311.573 249.661 318.065 251.152L317.752 252.467C311.315 251.003 304.797 249.959 298.224 249.39C291.651 248.82 285.037 248.875 278.451 249.281C275.151 249.457 271.878 249.851 268.592 250.203C265.319 250.677 262.046 251.111 258.8 251.735C252.296 252.887 245.831 254.324 239.421 255.95C232.998 257.536 226.615 259.298 220.233 261.101L215.452 262.456C213.85 262.89 212.207 263.269 210.591 263.676C207.372 264.584 204.045 265.004 200.745 265.601C194.104 266.387 187.382 266.861 180.687 266.129L178.175 265.926C177.346 265.845 176.518 265.669 175.689 265.533L170.733 264.679C167.5 263.757 164.187 263.093 161.091 261.765L158.728 260.884L157.546 260.437L156.419 259.881L151.897 257.644C150.416 256.845 149.031 255.882 147.605 255.001L145.473 253.646L143.491 252.087C138.045 248.102 133.55 242.992 129.584 237.597L126.814 233.395C126.325 232.718 125.931 231.972 125.551 231.227L124.383 229.004L123.215 226.781L122.631 225.669L122.156 224.504L120.282 219.841C117.865 213.606 116.262 206.978 116.031 200.228C115.855 196.852 116.099 193.464 116.642 190.143C117.158 186.809 118.068 183.542 119.236 180.384C121.531 174.04 124.913 168.212 128.376 162.573C131.852 156.921 135.533 151.418 138.371 145.535C141.182 139.68 143.151 133.336 143.002 126.871C143.042 126.071 142.947 125.258 142.893 124.458L142.703 121.991C142.54 120.297 142.513 118.589 142.635 116.881C142.866 113.479 143.721 110.049 145.419 106.986C147.157 103.977 149.792 101.361 153.092 99.9919C156.365 98.5823 160.14 98.4874 163.494 99.5853C166.862 100.683 169.755 102.879 171.982 105.509C174.182 108.179 175.771 111.283 176.884 114.482C178.012 117.694 178.663 121.042 178.989 124.39C179.22 126.057 179.207 127.752 179.302 129.432C179.302 130.273 179.275 131.113 179.261 131.953C179.261 132.794 179.22 133.634 179.125 134.475C178.623 141.198 176.803 147.799 174.046 153.912C171.344 160.065 167.758 165.731 164.16 171.289C160.588 176.86 156.813 182.322 154.491 188.367C153.35 191.376 152.657 194.535 152.725 197.706C152.779 200.865 153.594 203.982 154.979 206.869C157.777 212.657 161.905 217.984 167.405 221.278C172.878 224.666 179.505 225.751 185.983 225.683C192.515 225.629 199.034 224.504 205.457 223.094C211.894 221.657 218.263 219.854 224.592 217.943C227.756 216.981 230.92 216.005 234.071 214.988C237.181 213.918 240.508 213.186 243.726 212.291C250.299 210.99 257.035 210.19 263.757 210.841C270.452 211.518 277.012 213.457 282.933 216.601C284.399 217.401 285.825 218.282 287.224 219.204C288.568 220.193 289.954 221.142 291.189 222.254C293.783 224.395 296.133 226.794 298.034 229.519Z" fill="black"/>
<path d="M151.762 256.451C151.762 256.451 189.691 261.9 223.33 247.139C256.968 232.379 300.343 237.489 314.725 243.968C323.077 248.644 317.848 251.707 314.725 251.084C311.601 250.46 292.752 246.055 269.516 249.308C246.28 252.561 219.84 260.721 212.479 262.361C205.119 264.001 183.974 268.068 170.652 263.662C157.33 259.257 151.762 256.451 151.762 256.451Z" fill="#E6E6E6"/>
<path d="M298.034 229.519C295.942 226.943 293.498 224.693 290.891 222.687C289.614 221.644 288.202 220.79 286.83 219.882C286.137 219.434 285.391 219.082 284.684 218.662C283.965 218.282 283.272 217.821 282.525 217.496C276.631 214.595 270.181 212.969 263.676 212.454C257.144 211.884 250.584 212.752 244.202 214.094C237.887 215.72 231.572 217.875 225.216 219.787C218.861 221.698 212.451 223.514 205.946 224.978C199.441 226.415 192.814 227.553 186.051 227.621C179.356 227.675 172.335 226.564 166.441 222.931C160.52 219.366 156.202 213.755 153.255 207.682C151.775 204.606 150.865 201.19 150.81 197.72C150.742 194.25 151.503 190.834 152.698 187.662C155.156 181.305 158.999 175.775 162.557 170.218C166.156 164.674 169.66 159.09 172.294 153.099C174.97 147.148 176.735 140.791 177.21 134.298C177.292 133.485 177.346 132.685 177.346 131.872L177.387 129.432C177.292 127.806 177.305 126.179 177.088 124.566C176.776 121.34 176.151 118.128 175.092 115.092C174.033 112.055 172.552 109.168 170.529 106.729C168.492 104.316 165.898 102.364 162.937 101.402C159.991 100.439 156.731 100.521 153.893 101.74C151.028 102.92 148.719 105.21 147.157 107.908C145.636 110.659 144.835 113.79 144.631 116.976C144.523 118.562 144.536 120.175 144.699 121.774L144.889 124.255C144.944 125.095 145.039 125.949 145.012 126.803C145.175 133.634 143.083 140.317 140.191 146.335C137.271 152.394 133.563 157.937 130.1 163.563C126.651 169.174 123.337 174.881 121.124 181.021C119.997 184.071 119.114 187.215 118.625 190.428C118.096 193.626 117.865 196.88 118.041 200.119C118.258 206.612 119.807 213.037 122.17 219.136L124.003 223.69L124.465 224.829L125.035 225.913L126.176 228.082L127.316 230.251C127.683 230.983 128.063 231.701 128.539 232.365L131.241 236.459C135.098 241.691 139.457 246.665 144.74 250.528L146.655 252.046L148.719 253.361C150.118 254.215 151.449 255.15 152.888 255.923L157.275 258.105L158.375 258.647L159.515 259.081L161.81 259.949C164.825 261.236 168.044 261.887 171.194 262.782L176.029 263.622C176.844 263.744 177.631 263.934 178.446 264.015L180.891 264.218C187.409 264.95 194.009 264.517 200.514 263.771C203.746 263.202 207.019 262.809 210.183 261.928C211.786 261.535 213.375 261.169 214.977 260.748L219.771 259.406C226.167 257.631 232.577 255.896 239.028 254.324C245.478 252.724 251.983 251.301 258.529 250.162C261.802 249.552 265.102 249.119 268.402 248.658C271.715 248.305 275.029 247.926 278.356 247.763C285.01 247.384 291.692 247.357 298.346 247.966C304.987 248.563 311.573 249.661 318.065 251.152L317.752 252.467C311.315 251.003 304.797 249.959 298.224 249.39C291.651 248.82 285.037 248.875 278.451 249.281C275.151 249.457 271.878 249.851 268.592 250.203C265.319 250.677 262.046 251.111 258.8 251.735C252.296 252.887 245.831 254.324 239.421 255.95C232.998 257.536 226.615 259.298 220.233 261.101L215.452 262.456C213.85 262.89 212.207 263.269 210.591 263.676C207.372 264.584 204.045 265.004 200.745 265.601C194.104 266.387 187.382 266.861 180.687 266.129L178.175 265.926C177.346 265.845 176.518 265.669 175.689 265.533L170.733 264.679C167.5 263.757 164.187 263.093 161.091 261.765L158.728 260.884L157.546 260.437L156.419 259.881L151.897 257.644C150.416 256.845 149.031 255.882 147.605 255.001L145.473 253.646L143.491 252.087C138.045 248.102 133.55 242.992 129.584 237.597L126.814 233.395C126.325 232.718 125.931 231.972 125.551 231.227L124.383 229.004L123.215 226.781L122.631 225.669L122.156 224.504L120.282 219.841C117.865 213.606 116.262 206.978 116.031 200.228C115.855 196.852 116.099 193.464 116.642 190.143C117.158 186.809 118.068 183.542 119.236 180.384C121.531 174.04 124.913 168.212 128.376 162.573C131.852 156.921 135.533 151.418 138.371 145.535C141.182 139.68 143.151 133.336 143.002 126.871C143.042 126.071 142.947 125.258 142.893 124.458L142.703 121.991C142.54 120.297 142.513 118.589 142.635 116.881C142.866 113.479 143.721 110.049 145.419 106.986C147.157 103.977 149.792 101.361 153.092 99.9919C156.365 98.5823 160.14 98.4874 163.494 99.5853C166.862 100.683 169.755 102.879 171.982 105.509C174.182 108.179 175.771 111.283 176.884 114.482C178.012 117.694 178.663 121.042 178.989 124.39C179.22 126.057 179.207 127.752 179.302 129.432C179.302 130.273 179.275 131.113 179.261 131.953C179.261 132.794 179.22 133.634 179.125 134.475C178.623 141.198 176.803 147.799 174.046 153.912C171.344 160.065 167.758 165.731 164.16 171.289C160.588 176.86 156.813 182.322 154.491 188.367C153.35 191.376 152.657 194.535 152.725 197.706C152.779 200.865 153.594 203.982 154.979 206.869C157.777 212.657 161.905 217.984 167.405 221.278C172.878 224.666 179.505 225.751 185.983 225.683C192.515 225.629 199.034 224.504 205.457 223.094C211.894 221.657 218.263 219.854 224.592 217.943C227.756 216.981 230.92 216.005 234.071 214.988C237.181 213.918 240.508 213.186 243.726 212.291C250.299 210.99 257.035 210.19 263.757 210.841C270.452 211.518 277.012 213.457 282.933 216.601C284.399 217.401 285.825 218.282 287.224 219.204C288.568 220.193 289.954 221.142 291.189 222.254C293.783 224.395 296.133 226.794 298.034 229.519Z" fill="black"/>
<path d="M331.523 160.54C331.523 160.54 351.133 128.308 352.953 115.959C354.759 103.611 352.043 95.1803 345.103 94.8686C338.164 94.5704 334.239 97.8777 326.688 112.639C319.138 127.399 294.096 165.054 292.29 173.186C290.483 181.319 285.649 198.493 293.199 199.089C300.75 199.686 320.659 199.238 328.209 192.542C315.838 217.469 303.765 260.545 331.835 272.595C359.906 284.645 413.616 292.168 421.641 265.588C426.924 248.075 436.553 203.616 419.659 172.902C401.529 139.937 379.271 122.1 344.872 136.549" fill="white"/>
<path d="M314.982 235.862C314.982 235.862 344.695 267.593 416.467 257.034C417.16 267.932 418.653 273.747 413.534 276.621C408.414 279.494 395.879 286.299 368.909 282.693C341.939 279.088 325.778 271.212 322.071 265.601C318.363 259.962 313.977 253.348 314.982 235.862Z" fill="#E6E6E6"/>
<path d="M350.616 97.7285C350.616 97.7285 356.279 105.278 352.232 119.131C344.858 136.549 339.508 146.66 331.523 160.554C328.603 165.637 325.887 171.085 322.777 173.62C321.663 174.528 315.756 175.016 317.942 169.215C320.319 162.899 344.953 120.188 350.616 97.7285Z" fill="#E6E6E6"/>
<path d="M331.523 160.54C333.628 156.067 335.963 151.743 338.299 147.419C340.622 143.095 342.862 138.717 344.981 134.298C347.072 129.866 349.096 125.393 350.589 120.798C351.309 118.466 351.866 116.271 352.07 113.831C352.301 111.432 352.396 109.033 352.205 106.674C352.015 104.329 351.554 101.998 350.562 100.019C350.06 99.0429 349.408 98.189 348.647 97.5248C347.86 96.8877 346.923 96.4946 345.931 96.3049C344.967 96.1422 343.704 96.1964 342.645 96.3184C341.559 96.454 340.54 96.8064 339.603 97.2944C337.702 98.2974 336.126 100.032 334.728 101.916C331.93 105.739 329.757 110.117 327.503 114.495C325.194 118.927 322.723 123.183 320.238 127.453C315.267 135.979 310.093 144.356 305.109 152.814C302.597 157.029 300.084 161.244 297.776 165.528C296.608 167.656 295.535 169.824 294.612 171.966L294.109 173.471C293.946 174.026 293.81 174.663 293.661 175.26L292.778 178.838C291.678 183.555 290.551 188.381 290.673 192.949C290.728 194.074 290.891 195.158 291.244 196.039C291.434 196.459 291.651 196.812 291.909 197.083C292.181 197.327 292.493 197.489 292.86 197.611C293.186 197.693 293.851 197.747 294.449 197.801C295.046 197.855 295.657 197.882 296.255 197.923C297.464 197.991 298.686 198.031 299.894 198.045C304.756 198.113 309.659 197.842 314.466 197.123C316.87 196.784 319.26 196.296 321.568 195.551C323.864 194.805 326.131 193.87 328.033 192.379L328.915 191.674L328.44 192.691C325.167 199.78 322.356 207.086 320.156 214.554C317.943 222.009 316.326 229.654 315.851 237.367C315.349 245.025 316.055 252.941 319.464 259.704C321.134 263.079 323.605 265.994 326.593 268.244C329.54 270.548 333.084 271.971 336.738 273.367C344.003 276.092 351.513 278.22 359.145 279.752C366.764 281.297 374.504 282.313 382.272 282.49C389.999 282.666 397.849 282.096 405.114 279.67C408.726 278.45 412.149 276.661 414.933 274.181C417.73 271.7 419.794 268.501 420.786 264.855C422.972 257.4 424.751 249.796 426.014 242.124C427.291 234.452 428.105 226.686 428.268 218.919C428.431 211.152 427.97 203.358 426.598 195.727C425.199 188.11 422.972 180.587 419.265 173.769C415.584 166.91 411.456 160.255 406.662 154.142C401.841 148.056 396.273 142.472 389.646 138.432C383.073 134.366 375.401 132.035 367.646 132.089C359.878 132.062 352.219 134.081 345.049 137.063L344.668 136.155C351.92 133.119 359.702 131.018 367.66 131.032C375.604 130.95 383.508 133.322 390.257 137.47C397.047 141.59 402.724 147.256 407.64 153.396C412.543 159.564 416.752 166.233 420.514 173.132C424.344 180.072 426.68 187.73 428.146 195.456C429.599 203.209 430.115 211.098 430.007 218.973C429.898 226.848 429.138 234.696 427.902 242.45C426.666 250.216 424.968 257.902 422.755 265.465C421.709 269.396 419.387 273.042 416.331 275.753C413.276 278.491 409.609 280.402 405.807 281.69C398.175 284.265 390.122 284.848 382.231 284.685C374.314 284.523 366.451 283.506 358.71 281.961C350.97 280.416 343.351 278.288 335.936 275.536C334.076 274.831 332.256 274.14 330.423 273.259C329.499 272.825 328.576 272.391 327.72 271.836L326.417 271.036L325.181 270.114C321.935 267.634 319.246 264.381 317.481 260.721C313.868 253.374 313.284 245.106 313.868 237.245C314.534 229.342 316.367 221.616 318.784 214.148C321.256 206.679 324.312 199.428 327.965 192.488L328.372 192.799C326.539 194.561 324.271 195.741 321.949 196.676C319.626 197.625 317.209 198.303 314.765 198.845C309.876 199.916 304.905 200.39 299.908 200.593C298.659 200.647 297.409 200.661 296.16 200.661C295.535 200.647 294.91 200.661 294.272 200.634C293.634 200.607 293.064 200.62 292.181 200.458C291.366 200.254 290.551 199.848 289.899 199.265C289.275 198.669 288.826 197.977 288.501 197.286C287.889 195.89 287.686 194.507 287.591 193.179C287.414 190.522 287.686 187.988 288.025 185.494C288.378 182.999 288.867 180.546 289.383 178.12L290.171 174.501C290.307 173.891 290.402 173.322 290.578 172.698L291.217 170.692C292.222 168.293 293.335 166.043 294.503 163.847C296.839 159.455 299.324 155.186 301.85 150.943C306.943 142.485 312.157 134.135 317.291 125.759C319.844 121.57 322.383 117.355 324.705 113.099C327.028 108.775 329.323 104.316 332.419 100.249C333.981 98.2432 335.801 96.2236 338.313 94.9359C339.549 94.3124 340.92 93.8786 342.278 93.7295C343.663 93.6075 344.886 93.5398 346.366 93.7973C347.778 94.0684 349.177 94.6919 350.291 95.6271C351.377 96.5895 352.205 97.7416 352.803 98.9751C353.984 101.428 354.405 104.031 354.596 106.579C354.759 109.127 354.623 111.662 354.351 114.156C354.134 116.623 353.428 119.212 352.626 121.557C350.956 126.287 348.797 130.747 346.57 135.152C344.329 139.557 341.952 143.881 339.508 148.164C337.064 152.366 334.51 156.595 331.523 160.54Z" fill="black"/>
<path d="M449.562 266.481C449.562 266.481 459.788 268.569 464.446 259.609C470.027 258.891 474.061 256.749 475.989 252.629C483.92 253.252 494.336 254.309 505.852 248.833C517.368 243.357 531.111 225.56 540.536 209.363C550.015 193.043 551.454 185.913 548.63 170.515C538.254 159.563 527.051 142.024 516.377 131.167C505.703 120.309 482.182 98.8527 472.024 90.6116C462.341 82.75 447.62 73.3838 447.62 73.3838C447.62 73.3838 439.648 68.0027 437.041 70.1985C434.433 72.3943 439.648 86.0708 439.865 87.982C440.096 89.9067 439.716 94.3797 437.598 93.6613C435.479 92.9429 433.089 92.0754 427.304 86.3961C421.519 80.7168 414.498 73.4244 412.094 71.9199C409.69 70.4289 407.137 68.5584 407.409 73.2347C407.68 77.911 412.433 92.1703 411.265 95.4641C410.098 98.7578 407.531 97.5786 405.575 96.3451C403.62 95.1116 389.13 82.7906 386.97 80.9608C384.811 79.1309 379.216 73.7904 377.777 75.7423C376.337 77.6941 378.13 83.2244 381.049 87.8058C383.969 92.3736 402.832 122.804 410.356 145.806C417.865 168.807 422.863 187.689 423.705 200.688C424.547 213.686 420.731 240.85 417.662 251.775C414.593 262.7 412.773 273.082 416.358 275.319C419.943 277.555 429.232 283.56 439.119 278.097C446.465 274.045 449.562 266.481 449.562 266.481Z" fill="#4D4D4D"/>
<path d="M416.467 257.034C416.467 257.034 448.965 269.518 452.55 231.565C456.135 193.613 457.222 217.333 457.222 217.333C457.222 217.333 457.86 235.55 454.288 252.548C452.767 259.786 461.228 254.527 463.346 248.617C465.329 243.087 465.37 231.267 466.266 232.772C467.176 234.276 467.393 242.924 466.157 251.301C465.519 255.584 475.378 249.172 477.809 241.921C478.651 239.4 479.289 236.892 479.765 236.879C480.24 236.865 480.593 239.359 479.208 244.361C485.781 243.995 501.968 242.07 508.188 236.255C499.986 228.461 490.928 214.988 491.349 209.214C496.251 218.404 502.471 225.235 510.225 228.963C517.98 232.69 540.251 194.114 541.256 178.77C542.234 163.711 541.446 160.485 541.446 160.485L549.106 171.397C549.106 171.397 551.156 178.933 549.527 183.596C547.897 188.259 525.625 231.769 521.035 236.784C516.445 241.799 503.68 257.061 475.989 252.629C472.757 258.146 468.67 260.396 464.446 259.609C460.752 265.004 457.208 267.119 449.44 266.766C447.403 270.304 440.056 281.188 430.781 280.361C418.803 279.291 413.914 275.265 414.525 269.518C415.123 263.757 416.467 257.034 416.467 257.034Z" fill="#333333"/>
<path d="M449.875 265.153C452.115 265.682 454.791 265.696 457.086 264.923C459.422 264.164 461.472 262.592 462.857 260.464C463.265 259.962 463.523 259.379 463.808 258.796C464.107 258.227 464.392 257.644 464.568 257.021C464.772 256.397 465.003 255.787 465.166 255.164L465.56 253.226C466.049 250.623 466.375 247.953 466.796 245.323C466.605 247.993 466.497 250.637 466.225 253.32L465.994 255.34C465.872 256.004 465.682 256.668 465.533 257.333C465.41 258.01 465.152 258.647 464.894 259.284C464.636 259.921 464.405 260.586 464.025 261.168C462.708 263.635 460.481 265.709 457.805 266.821C456.475 267.376 455.062 267.742 453.623 267.878C452.17 268.027 450.798 268.041 449.236 267.783L449.875 265.153Z" fill="black"/>
<path d="M457.221 217.319C457.33 223.419 457.262 229.518 456.841 235.604C456.434 241.69 455.687 247.776 454.315 253.74C452.916 259.677 450.947 265.601 447.511 270.751C445.8 273.313 443.668 275.658 441.088 277.42C438.521 279.196 435.466 280.28 432.356 280.592C429.232 280.89 426.068 280.443 423.121 279.48C421.641 278.992 420.202 278.382 418.83 277.637C418.137 277.271 417.472 276.864 416.82 276.417C416.168 275.929 415.544 275.536 414.96 274.791C413.928 273.286 413.887 271.605 413.86 270.046C413.86 268.474 414.036 266.929 414.24 265.411C414.674 262.361 415.286 259.366 415.924 256.37C418.545 244.456 421.424 232.595 422.632 220.505C423.99 208.428 422.958 196.256 420.677 184.328C418.382 172.4 414.905 160.716 410.763 149.276C406.608 137.849 401.746 126.667 396.287 115.796C393.557 110.361 390.637 105.02 387.555 99.7883C386.02 97.1723 384.404 94.5834 382.761 92.0352C381.104 89.5276 379.311 86.9387 377.981 84.0923C377.315 82.669 376.718 81.1916 376.392 79.5786C376.242 78.7653 376.134 77.9249 376.256 77.0032C376.324 76.5424 376.446 76.0544 376.731 75.58C377.016 75.1056 377.532 74.6041 378.252 74.4821C378.945 74.3872 379.407 74.5634 379.855 74.6989C380.289 74.8616 380.656 75.0514 381.023 75.2547C381.742 75.6613 382.394 76.1087 383.032 76.556C384.309 77.4777 385.49 78.4535 386.672 79.443C391.357 83.428 395.771 87.63 400.469 91.4523C402.805 93.3093 405.25 95.2611 407.816 96.2777C408.441 96.5082 409.079 96.6301 409.446 96.5217C409.786 96.4404 409.989 96.1964 410.166 95.6271C410.478 94.475 410.342 92.9433 410.152 91.5201C409.731 88.5923 408.971 85.651 408.224 82.6961C407.504 79.7277 406.662 76.7999 406.323 73.5739C406.268 72.7471 406.2 71.9338 406.472 70.9037C406.608 70.4157 406.934 69.7245 407.667 69.3314C408.414 68.9519 409.147 69.0874 409.609 69.223C410.587 69.5212 411.266 69.982 411.945 70.4429C412.624 70.9037 413.235 71.3917 413.846 71.8932C416.25 73.8993 418.423 76.0544 420.609 78.2096C424.968 82.4657 429.178 86.9522 433.89 90.5306C435.045 91.371 436.349 92.2114 437.435 92.4283C437.951 92.5231 438.182 92.4147 438.358 92.225C438.548 92.0081 438.711 91.4252 438.725 90.7882C438.779 89.4869 438.521 88.0095 438.223 86.5727C437.91 85.1224 437.53 83.6585 437.136 82.2082C436.362 79.2668 435.439 76.3662 434.963 73.1538C434.868 72.3405 434.773 71.5136 434.895 70.5513C434.963 70.0633 435.072 69.5347 435.439 68.9519C435.792 68.369 436.539 67.8675 437.231 67.7997C438.481 67.6777 439.241 67.9759 440.056 68.2199C440.844 68.4774 441.59 68.7892 442.31 69.1145C448.014 71.8118 453.079 75.2412 458.158 78.7111C463.197 82.2082 468.113 85.8815 472.934 89.6496C482.576 97.213 491.878 105.183 500.828 113.56C509.75 121.977 518.251 130.815 526.304 140.032C534.371 149.235 542.207 158.669 548.807 169.052L548.902 169.201L548.942 169.35C549.445 171.302 549.744 173.267 549.947 175.26C550.07 176.249 550.097 177.252 550.137 178.255C550.151 178.757 550.151 179.258 550.137 179.76L550.124 180.505L550.11 180.885L550.097 181.075C550.029 181.142 550.328 181.197 549.608 181.264C548.902 181.21 549.187 181.142 549.119 181.088L549.105 180.912L549.078 180.546L548.997 179.814L548.807 178.364C548.684 177.401 548.508 176.439 548.345 175.477C548.005 173.565 547.611 171.641 547.231 169.757L547.367 170.055L535.851 155.904C532.008 151.187 528.151 146.497 524.131 141.916C516.146 132.739 507.74 123.929 498.926 115.566C490.072 107.23 480.851 99.2597 471.304 91.7234C466.524 87.9553 461.662 84.2956 456.692 80.8256C451.708 77.3963 446.629 73.9535 441.278 71.4052C440.613 71.107 439.934 70.8224 439.282 70.6055C438.657 70.3886 437.897 70.226 437.625 70.2802C437.557 70.2938 437.611 70.2531 437.557 70.3209C437.503 70.3751 437.435 70.6055 437.394 70.8766C437.313 71.4323 437.367 72.1372 437.449 72.8285C437.856 75.6614 438.752 78.6162 439.526 81.5576C439.92 83.035 440.314 84.526 440.626 86.0712C440.939 87.6164 441.224 89.1616 441.156 90.9102C441.088 91.7641 440.993 92.7807 440.219 93.7701C439.404 94.8003 437.924 95.0307 436.973 94.7867C435.058 94.3259 433.782 93.3635 432.478 92.4418C429.939 90.5442 427.711 88.4161 425.498 86.2881C423.298 84.1465 421.152 81.9778 418.993 79.8226C416.834 77.681 414.674 75.5258 412.407 73.6146C411.836 73.1402 411.266 72.6794 410.682 72.2727C410.111 71.8796 409.487 71.5001 408.998 71.351C408.74 71.2697 408.658 71.3239 408.699 71.2968C408.753 71.2697 408.672 71.2968 408.604 71.5272C408.468 71.9881 408.468 72.72 408.523 73.3977C408.808 76.2577 409.609 79.2262 410.315 82.1811C411.035 85.1495 411.795 88.1179 412.23 91.2355C412.407 92.8078 412.624 94.3937 412.149 96.21C412.013 96.6573 411.809 97.1452 411.429 97.5925C411.062 98.0398 410.492 98.3922 409.935 98.5142C408.794 98.7718 407.884 98.4736 407.083 98.2025C405.494 97.5925 404.163 96.7251 402.873 95.8305C401.597 94.9359 400.374 93.9735 399.179 92.9975C394.413 89.0803 390.013 84.8377 385.409 80.8934C384.255 79.9174 383.1 78.9415 381.892 78.074C381.294 77.6403 380.683 77.2201 380.072 76.8812C379.502 76.5424 378.741 76.2577 378.537 76.3119C378.456 76.2713 378.116 76.6508 378.049 77.2608C377.967 77.8572 378.021 78.5485 378.157 79.2262C378.429 80.6087 378.958 81.9913 379.583 83.3196C380.832 86.0305 382.516 88.4839 384.2 91.0728C385.857 93.6482 387.46 96.2642 388.994 98.9073C392.09 104.194 394.983 109.588 397.726 115.051C403.213 125.989 408.074 137.226 412.257 148.72C416.413 160.214 419.903 171.98 422.198 184.03C424.479 196.039 425.498 208.441 424.086 220.64C422.823 232.839 419.944 244.767 417.228 256.641C416.562 259.609 415.924 262.578 415.462 265.573C415.245 267.064 415.068 268.555 415.055 270.046C415.041 271.497 415.163 273.042 415.883 274.099C416.223 274.574 416.888 275.062 417.458 275.482C418.056 275.902 418.694 276.295 419.346 276.661C420.65 277.379 422.021 277.989 423.447 278.464C426.272 279.426 429.287 279.873 432.261 279.629C435.221 279.372 438.114 278.369 440.599 276.702C443.084 275.048 445.176 272.812 446.86 270.331C450.255 265.329 452.278 259.501 453.731 253.618C456.529 241.772 457.208 229.505 457.221 217.319Z" fill="black"/>
<path d="M464.501 258.24C465.194 258.43 466.267 258.471 467.177 258.335C468.127 258.24 469.051 257.902 469.961 257.509C471.74 256.641 473.329 255.245 474.564 253.578C474.904 253.185 475.203 252.751 475.474 252.29L476.33 250.948C476.792 249.986 477.308 249.051 477.729 248.061C478.095 247.058 478.543 246.069 478.869 245.038L479.793 241.921L479.195 245.12C478.978 246.191 478.638 247.234 478.367 248.291C478.055 249.335 477.62 250.352 477.253 251.395L476.52 252.886C476.289 253.388 476.017 253.889 475.692 254.35C474.551 256.275 472.975 258.037 470.952 259.298C469.92 259.881 468.834 260.409 467.639 260.68C466.43 260.965 465.289 261.101 463.85 260.884L464.501 258.24Z" fill="black"/>
<path d="M475.731 251.897C480.647 252.615 485.766 252.561 490.723 251.978C495.68 251.341 500.582 250.135 505.105 248.061C507.359 247.017 509.532 245.811 511.582 244.415C513.606 242.978 515.534 241.406 517.273 239.63C520.776 236.106 523.601 231.931 525.855 227.444L527.091 228.014C525.054 232.744 522.257 237.204 518.671 240.985C515.045 244.726 510.713 247.817 505.947 249.904C501.194 252.032 496.087 253.306 490.927 253.821C485.766 254.337 480.592 254.201 475.459 253.239L475.731 251.897Z" fill="black"/>
<path d="M461.934 140.723C461.934 140.723 472.988 149.547 479.71 148.192C486.419 146.836 500.719 140.33 500.719 140.33L503.408 142.621C503.408 142.621 484.395 152.488 481 152.936C477.605 153.383 469.484 150.74 466.225 146.633C462.952 142.526 461.934 140.723 461.934 140.723Z" fill="#333333"/>
<path d="M481.001 119.062C482.658 121.313 484.246 123.441 485.971 125.555C487.682 127.656 489.461 129.703 491.417 131.587C495.314 135.355 499.47 138.866 503.625 142.349L504.046 142.702L503.571 142.959C497.351 146.226 491.145 149.479 484.667 152.257C483.853 152.596 483.024 152.922 482.169 153.193C481.286 153.464 480.322 153.613 479.398 153.572C477.551 153.518 475.786 153.057 474.088 152.447C470.707 151.2 467.651 149.126 465.166 146.524C462.708 143.867 460.848 140.709 459.761 137.253C459.218 135.531 458.879 133.715 459.014 131.844C459.137 130.015 459.761 128.036 461.228 126.748L461.771 126.274L462.369 125.894C462.762 125.609 463.197 125.46 463.632 125.27C464.487 124.918 465.316 124.633 466.158 124.335L471.169 122.546L481.001 119.062ZM480.974 119.198L471.209 123.291L466.402 125.284C464.813 125.989 463.129 126.423 462.016 127.575C460.848 128.659 460.359 130.299 460.291 131.912C460.223 133.552 460.562 135.233 461.065 136.832C462.124 140.058 463.89 143.068 466.158 145.589C468.48 148.069 471.318 150.102 474.509 151.322C476.098 151.932 477.769 152.393 479.425 152.461C480.267 152.515 481.055 152.393 481.843 152.163C482.658 151.905 483.459 151.607 484.274 151.295C490.711 148.638 496.985 145.467 503.232 142.295L503.164 142.891C499.035 139.34 494.975 135.735 491.118 131.885C489.19 129.96 487.438 127.859 485.767 125.718C484.097 123.603 482.44 121.38 480.974 119.198Z" fill="black"/>
<path d="M591.069 203.467C591.069 203.467 604.676 207.506 610.991 210.095C618.053 212.996 630.818 218.946 631.212 220.939C631.66 223.202 627.559 222.348 627.749 223.731C628.048 225.805 634.675 228.475 632.109 231.484C629.542 234.493 623.512 236.608 628.184 241.419C632.856 246.245 630.601 248.197 621.095 249.552C614.264 250.528 589.263 247.288 579.594 241.718" fill="white"/>
<path d="M585.026 232.081C585.026 232.081 610.978 240.634 619.126 240.485C627.274 240.336 626.866 239.658 626.866 239.658C626.866 239.658 631.538 244.28 630.085 246.611C628.632 248.943 618.324 250.502 612.784 249.715C607.243 248.929 585.148 245.229 583.124 243.399C581.101 241.569 585.026 232.081 585.026 232.081Z" fill="#E6E6E6"/>
<path d="M591.097 203.345C596.338 204.727 601.553 206.218 606.727 207.872C611.929 209.526 616.94 211.667 621.897 213.917C624.382 215.056 626.813 216.262 629.203 217.726C629.8 218.106 630.384 218.485 630.982 218.96C631.281 219.204 631.579 219.461 631.892 219.854C631.973 219.976 632.055 220.098 632.136 220.234C632.218 220.41 632.313 220.667 632.326 220.803C632.353 221.101 632.408 221.359 632.326 221.711C632.231 222.389 631.647 223.026 631.199 223.243C630.737 223.5 630.33 223.622 629.963 223.704L628.985 223.893C628.714 223.92 628.469 224.11 628.659 223.893C628.795 223.473 628.632 223.636 628.782 223.839C628.85 224.029 629.067 224.259 629.257 224.476C629.664 224.923 630.18 225.357 630.697 225.805C631.213 226.238 631.742 226.713 632.258 227.255C632.761 227.784 633.277 228.448 633.521 229.369C633.793 230.305 633.413 231.416 632.856 232.053C632.367 232.636 631.837 233.151 631.308 233.612C630.262 234.534 629.189 235.36 628.415 236.255C628.021 236.702 627.736 237.163 627.641 237.583C627.546 237.8 627.6 238.004 627.573 238.207C627.655 238.424 627.627 238.627 627.763 238.858C628.143 239.793 629.04 240.565 630.045 241.731C630.506 242.314 630.982 242.897 631.335 243.683C631.525 244.049 631.647 244.523 631.729 244.998C631.756 245.513 631.729 246.069 631.511 246.584C631.077 247.587 630.276 248.21 629.583 248.576C628.877 248.983 628.171 249.227 627.478 249.457C626.093 249.877 624.721 250.162 623.363 250.392C622.684 250.514 622.005 250.596 621.326 250.704C620.62 250.758 619.86 250.867 619.181 250.853C616.369 250.921 613.653 250.691 610.924 250.406C605.492 249.823 600.114 248.888 594.804 247.654C589.521 246.34 584.198 244.916 579.35 242.192L579.906 241.243C584.605 243.683 589.929 244.943 595.157 246.055C600.44 247.099 605.777 247.844 611.127 248.278C613.803 248.508 616.492 248.603 619.099 248.535C619.764 248.535 620.362 248.441 621 248.386C621.652 248.278 622.318 248.183 622.969 248.061C624.273 247.831 625.563 247.546 626.758 247.166C627.926 246.814 629.108 246.15 629.284 245.662C629.569 245.309 629.013 244.144 628.239 243.222C627.532 242.327 626.283 241.27 625.685 239.644C625.495 239.264 625.468 238.776 625.4 238.329C625.427 237.868 625.427 237.38 625.59 236.96C625.848 236.079 626.364 235.401 626.88 234.845C627.926 233.734 629.067 232.948 630.072 232.121C630.588 231.714 631.05 231.281 631.443 230.847C631.742 230.454 631.851 230.156 631.769 229.776C631.593 228.949 630.547 227.973 629.583 227.119C629.094 226.658 628.551 226.238 628.021 225.71C627.75 225.439 627.492 225.167 627.234 224.761C627.098 224.598 626.989 224.341 626.908 224.056L626.84 223.853C626.826 223.744 626.826 223.622 626.826 223.514C626.826 223.283 626.908 223.053 627.03 222.836C627.288 222.429 627.6 222.253 627.831 222.131C628.062 222.023 628.279 221.942 628.456 221.874L629.434 221.562C629.732 221.481 629.95 221.372 630.085 221.291C630.235 221.182 630.126 221.237 630.126 221.25C630.153 221.277 630.113 221.196 630.126 221.155C630.126 221.128 630.126 221.223 630.167 221.237C630.153 221.223 630.14 221.21 630.14 221.182C630.031 221.047 629.841 220.844 629.61 220.654C629.162 220.274 628.619 219.908 628.076 219.556C625.876 218.146 623.458 216.913 621.082 215.666C616.274 213.24 611.426 210.854 606.388 208.97C601.336 207.059 596.203 205.31 591.083 203.575L591.097 203.345Z" fill="black"/>
<path d="M521.959 174.854C521.959 174.854 570.4 182.986 595.89 202.722C590.757 211.302 583.369 227.716 583.07 245.337C555.76 244.89 512.005 232.989 502.648 224.246C493.291 215.517 490.127 206.327 490.127 206.327" fill="#4D4D4D"/>
<path d="M491.363 209.201C491.363 209.201 512.1 219.34 533.489 223.067C554.878 226.808 585.542 227.703 585.542 227.703L583.057 245.324C583.057 245.324 552.95 243.399 534.711 237.517C516.473 231.634 504.034 228.055 498.384 219.814C492.735 211.573 491.363 209.201 491.363 209.201Z" fill="#333333"/>
<path d="M521.959 174.854C528.532 175.816 535.037 177.198 541.515 178.73C547.979 180.275 554.403 182.051 560.717 184.179C567.019 186.334 573.279 188.679 579.336 191.512C585.379 194.372 591.232 197.72 596.637 201.759L597.479 202.383L596.936 203.318C593.215 209.702 590.241 216.547 588.068 223.609C586.995 227.147 586.126 230.739 585.515 234.371C584.904 238.004 584.483 241.664 584.401 245.337L584.374 246.665L583.07 246.625C574.121 246.367 565.28 245.188 556.548 243.602C552.175 242.816 547.83 241.881 543.511 240.864C539.193 239.82 534.915 238.627 530.664 237.353C526.427 236.039 522.204 234.656 518.062 233.029L514.965 231.81L511.91 230.454C510.878 230.034 509.9 229.478 508.909 228.977L507.428 228.204L506.003 227.309C502.078 224.951 499.212 221.427 496.51 217.93C493.889 214.351 491.648 210.475 490.168 206.3C491.893 210.366 494.324 214.08 497.04 217.523C499.851 220.871 502.852 224.219 506.641 226.266C510.443 228.353 514.504 230.088 518.646 231.525C522.774 233.016 526.998 234.29 531.235 235.483C535.485 236.635 539.749 237.706 544.054 238.641C548.346 239.617 552.651 240.512 556.996 241.243C565.661 242.734 574.406 243.819 583.138 243.995L581.794 245.283C581.875 241.46 582.215 237.652 582.894 233.897C583.559 230.142 584.483 226.442 585.624 222.823C587.919 215.571 591.015 208.604 594.899 202.071L595.198 203.643C590.01 199.685 584.293 196.419 578.44 193.41C572.546 190.468 566.421 187.974 560.215 185.684L555.53 184.043L550.804 182.512C549.242 181.983 547.653 181.509 546.064 181.021C544.489 180.533 542.9 180.058 541.298 179.625C534.888 177.849 528.451 176.223 521.959 174.854Z" fill="black"/>
<path d="M386.944 52.4151C386.944 52.4151 393.843 53.7163 398.949 56.0883C402.073 60.602 366.302 64.5327 371.164 54.7193C375.686 45.5836 378.457 41.6121 381.865 39.6331C390.285 34.7535 396.478 35.2686 396.478 35.2686C396.478 35.2686 398.691 41.3275 397.292 45.2041C395.418 50.409 386.944 52.4151 386.944 52.4151Z" fill="white"/>
<path d="M368.504 61.5639C368.504 61.5639 374.398 43.7126 381.405 39.8767C388.738 35.8646 394.347 34.6175 398.951 35.5257" stroke="black" stroke-miterlimit="10"/>
<path d="M442.977 62.1195C442.977 62.1195 447.037 77.0294 441.157 77.0294C435.277 77.0294 423.054 65.9554 418.07 66.2807C413.087 66.5925 419.198 76.8126 414.227 77.7072C409.243 78.6153 395.038 64.1256 386.958 64.9388C376.447 66.0096 389.484 83.0341 385.546 85.1621C382.83 86.626 368.34 76.6635 354.705 71.6076C341.668 66.7687 329.133 66.1858 329.133 66.1858C329.133 66.1858 328.305 64.4102 330.342 63.5563C336.494 60.9403 358.63 56.4808 390.475 56.1013C423.598 55.7082 437.979 59.4086 441.972 60.9131C442.637 61.1842 442.909 61.8755 442.977 62.1195Z" fill="#4D4D4D"/>
<path d="M443.29 62.0381C444.145 65.4945 444.824 69.0051 444.688 72.6377C444.62 73.5459 444.485 74.4676 444.132 75.3622C443.778 76.2297 443.032 77.1514 441.986 77.3818C439.935 77.7071 438.211 76.9345 436.54 76.2568C433.227 74.7929 430.253 72.8411 427.224 71.0112C425.717 70.1031 424.196 69.2085 422.648 68.4087C421.874 68.0292 421.086 67.6632 420.298 67.3922C419.904 67.2295 419.511 67.1753 419.117 67.0669C418.736 66.9991 418.356 66.9855 418.017 66.9991C417.311 67.0804 416.998 67.3921 416.822 68.1105C416.659 68.8154 416.713 69.6693 416.781 70.5232C416.903 72.2582 417.351 74.0067 416.917 76.067C416.781 76.5821 416.55 77.1243 416.129 77.5716C415.722 78.0324 415.138 78.3171 414.608 78.4255C413.44 78.7101 412.435 78.3713 411.553 78.0731C409.774 77.4089 408.239 76.4601 406.704 75.5249C403.662 73.6272 400.77 71.594 397.782 69.7642C396.288 68.856 394.767 67.9886 393.206 67.2702C391.644 66.5382 390.028 65.9554 388.412 65.7656C386.877 65.63 385.071 65.9418 384.283 66.9855C383.455 68.0428 383.523 69.8049 383.849 71.4314C384.501 74.7794 386.022 77.9782 386.932 81.5566C387.04 82.0175 387.122 82.4783 387.176 82.9798C387.217 83.4813 387.23 84.0235 387.013 84.647C386.809 85.2706 386.266 85.9076 385.478 86.0703C384.786 86.2058 384.297 86.0838 383.794 86.0025C381.893 85.5416 380.291 84.7555 378.661 83.9964C375.443 82.4376 372.333 80.7433 369.182 79.1304C362.895 75.8908 356.539 72.814 349.817 70.7943C343.108 68.7747 336.114 67.4599 329.148 66.9584H329.134L328.645 66.9449L328.441 66.4975C328.238 66.0503 328.156 65.6843 328.156 65.237C328.156 64.8032 328.292 64.3289 328.536 63.9358C328.998 63.1361 329.881 62.7565 330.424 62.5668C331.619 62.0923 332.801 61.7264 334.009 61.3875C336.399 60.7098 338.817 60.1676 341.234 59.6796C346.069 58.7173 350.944 57.9718 355.819 57.3618C365.583 56.169 375.415 55.5591 385.234 55.288C395.066 55.1524 404.885 55.288 414.69 56.0064C419.592 56.3724 424.481 56.8874 429.343 57.6329C431.774 57.9989 434.204 58.4191 436.594 58.9748C437.79 59.2459 438.985 59.5577 440.18 59.9101C440.764 60.0998 441.361 60.276 441.945 60.4929C442.556 60.6962 443.14 61.3604 443.29 62.0381ZM442.651 62.2008C442.502 61.7128 442.176 61.3062 441.646 61.1706C441.076 60.9673 440.492 60.7911 439.922 60.6149C438.754 60.2896 437.572 60.0049 436.377 59.7474C434.001 59.2323 431.583 58.8393 429.166 58.514C424.318 57.8769 419.443 57.4974 414.567 57.2398C404.803 56.7112 394.998 56.8061 385.234 57.1043C375.456 57.3889 365.692 58.0531 355.996 59.2459C351.148 59.8287 346.313 60.5471 341.533 61.4824C339.143 61.9568 336.766 62.4719 334.444 63.1225C333.276 63.4342 332.122 63.8002 331.035 64.2204C329.908 64.5999 329.677 65.0608 329.854 65.8469L329.161 65.3861H329.188C336.359 65.8876 343.393 67.2024 350.265 69.2491C357.15 71.2823 363.614 74.4134 369.929 77.6529C373.093 79.2659 376.217 80.9467 379.381 82.4783C380.956 83.2103 382.572 83.9828 384.12 84.3624C384.487 84.4301 384.881 84.4844 385.071 84.4437C385.166 84.4166 385.302 84.3217 385.37 84.1048C385.56 83.644 385.424 82.7494 385.248 81.9632C384.433 78.6695 382.885 75.3893 382.178 71.7703C382.015 70.8621 381.893 69.9133 381.948 68.9238C382.002 67.9479 382.26 66.8635 382.953 65.9825C383.645 65.1014 384.677 64.5728 385.641 64.356C386.592 64.1255 387.611 64.0306 388.575 64.1391C390.503 64.3695 392.241 65.0337 393.885 65.7927C395.541 66.5653 397.103 67.4599 398.624 68.3952C401.68 70.2657 404.586 72.3124 407.546 74.183C409.027 75.1047 410.548 76.0128 412.082 76.5957C413.644 77.2327 415.111 77.0972 415.409 75.6875C415.762 74.2507 415.423 72.4344 415.287 70.6588C415.233 69.7506 415.151 68.8154 415.396 67.7852C415.518 67.2837 415.762 66.7009 416.238 66.2807C416.713 65.8469 417.324 65.6436 417.854 65.6029C418.383 65.5758 418.913 65.6165 419.388 65.7114C419.85 65.847 420.339 65.9283 420.76 66.118C421.643 66.4433 422.457 66.8364 423.272 67.243C424.861 68.0834 426.396 69.0187 427.903 69.9404C430.932 71.7838 433.865 73.7763 437.002 75.2944C438.536 76.0128 440.275 76.6905 441.769 76.5008C442.488 76.3652 443.018 75.7688 443.357 75.0504C443.683 74.3049 443.833 73.4646 443.914 72.6106C444.159 69.1271 443.48 65.603 442.651 62.2008Z" fill="black"/>
<path d="M386.945 52.4149C386.945 52.4149 393.844 53.7161 398.95 56.0881C402.074 60.6018 413.698 67.5688 424.006 63.8278C434.313 60.0867 433.919 51.8592 426.79 45.9765C419.66 40.1074 412.843 38.2775 398.95 35.5259L396.479 35.2549C396.479 35.2549 398.692 41.3137 397.293 45.1903C395.419 50.4088 386.945 52.4149 386.945 52.4149Z" fill="white"/>
<path d="M396.56 34.5771L399.032 34.8347H399.059H399.086C402.929 35.5937 406.772 36.3528 410.589 37.3422C414.391 38.3317 418.207 39.6059 421.684 41.5713C423.422 42.5472 425.065 43.6858 426.627 44.9328C428.202 46.1527 429.669 47.6166 430.782 49.3245C431.896 51.0323 432.684 53.0655 432.616 55.2071C432.575 57.3487 431.57 59.409 430.09 60.8593C428.623 62.3503 426.803 63.3534 424.943 64.0989C423.082 64.8579 421.086 65.3187 419.076 65.4678C415.043 65.766 411.01 64.8172 407.411 63.1094C405.605 62.2554 403.893 61.2389 402.305 60.0325C401.517 59.4225 400.743 58.7855 400.037 58.0671C399.412 57.3894 398.665 56.8472 397.837 56.3728C394.496 54.5294 390.721 53.4043 386.945 52.4013C388.901 52.6046 390.829 52.9706 392.731 53.4721C394.632 53.9601 396.519 54.5971 398.298 55.546C399.181 56.0204 400.064 56.6032 400.784 57.3351C401.463 57.9993 402.182 58.6093 402.956 59.1786C404.491 60.3171 406.148 61.3066 407.886 62.1063C411.349 63.7193 415.192 64.5868 418.981 64.2751C420.869 64.126 422.716 63.6651 424.481 62.9467C426.233 62.2283 427.89 61.2795 429.166 59.9647C430.456 58.6635 431.258 56.9556 431.285 55.18C431.326 53.3908 430.647 51.6152 429.628 50.0835C428.596 48.5383 427.251 47.1964 425.73 46.0442C424.223 44.8514 422.634 43.7806 420.964 42.8454C414.214 39.1992 406.419 37.7896 398.801 36.1901L398.855 36.2037L396.397 35.919L396.56 34.5771Z" fill="black"/>
<path d="M383.321 84.1C385.916 83.2051 387.59 81.2408 387.061 79.7124C386.532 78.184 384 77.6705 381.405 78.5653C378.81 79.4601 377.136 81.4245 377.665 82.9529C378.194 84.4812 380.726 84.9948 383.321 84.1Z" fill="#F5B800"/>
<path d="M387.258 79.6317C387.651 80.7974 387.067 82.0173 386.334 82.8442C385.587 83.7387 384.555 84.2945 383.496 84.6605C382.423 84.9858 381.282 85.1213 380.142 84.9587C379.042 84.8096 377.779 84.2945 377.29 83.061C377.059 82.4646 377.086 81.7733 377.276 81.1905C377.466 80.5941 377.833 80.1062 378.254 79.686C379.069 78.8456 380.087 78.2627 381.16 77.8968C382.233 77.5308 383.401 77.3546 384.542 77.6392C385.655 77.8561 386.823 78.4932 387.258 79.6317ZM386.837 79.7808C386.511 78.8591 385.356 78.6423 384.446 78.6558C383.482 78.7236 382.532 78.9269 381.622 79.2251C380.725 79.564 379.843 79.9977 379.137 80.6212C378.498 81.2447 377.792 81.9902 377.996 82.8442C378.254 83.671 379.313 84.0099 380.25 84.0505C381.214 84.1047 382.192 83.8743 383.102 83.5354C384.012 83.1966 384.881 82.7493 385.655 82.1664C386.402 81.5836 387.108 80.7025 386.837 79.7808Z" fill="black"/>
<path d="M411.691 76.1845C414.429 75.9908 416.556 74.5262 416.442 72.9133C416.327 71.3004 414.014 70.1499 411.276 70.3436C408.538 70.5373 406.411 72.0019 406.526 73.6148C406.64 75.2277 408.953 76.3782 411.691 76.1845Z" fill="#F5B800"/>
<path d="M416.659 72.896C416.74 74.1295 415.858 75.1461 414.934 75.756C413.984 76.4202 412.843 76.7048 411.729 76.7862C410.602 76.8268 409.461 76.6642 408.416 76.2169C407.397 75.7832 406.311 74.9698 406.148 73.6415C406.08 73.0044 406.284 72.3539 406.623 71.8388C406.963 71.3237 407.451 70.9306 407.954 70.646C408.959 70.0496 410.1 69.7514 411.227 69.6701C412.354 69.5887 413.535 69.7243 414.554 70.2935C415.559 70.7815 416.523 71.6897 416.659 72.896ZM416.211 72.9367C416.129 71.9608 415.084 71.4457 414.201 71.2288C413.25 71.039 412.286 70.9984 411.322 71.0391C410.371 71.134 409.393 71.3237 408.565 71.7439C407.777 72.1776 406.908 72.7198 406.895 73.5873C406.935 74.4548 407.859 75.0512 408.755 75.3358C409.679 75.634 410.684 75.6612 411.648 75.5798C412.626 75.485 413.576 75.2816 414.472 74.9292C415.314 74.5768 416.224 73.8991 416.211 72.9367Z" fill="black"/>
<path d="M439.392 75.4034C442.137 75.4034 444.363 74.0926 444.363 72.4756C444.363 70.8587 442.137 69.5479 439.392 69.5479C436.647 69.5479 434.422 70.8587 434.422 72.4756C434.422 74.0926 436.647 75.4034 439.392 75.4034Z" fill="#F5B800"/>
<path d="M444.593 72.4752C444.593 73.7087 443.629 74.6575 442.665 75.2132C441.674 75.8096 440.519 75.9994 439.392 76.0129C438.265 75.9723 437.138 75.7283 436.133 75.1997C435.155 74.6982 434.123 73.8036 434.055 72.4752C434.042 71.8382 434.286 71.2011 434.653 70.6996C435.033 70.1981 435.535 69.8592 436.065 69.6017C437.111 69.0731 438.265 68.8562 439.392 68.8697C440.519 68.8697 441.687 69.0866 442.665 69.7237C443.656 70.2794 444.553 71.2553 444.593 72.4752ZM444.145 72.4752C444.132 71.4993 443.127 70.9164 442.258 70.6318C441.321 70.3878 440.37 70.2659 439.406 70.2388C438.442 70.2659 437.464 70.3879 436.608 70.7538C435.793 71.1334 434.884 71.6077 434.802 72.4752C434.775 73.3427 435.671 74.0069 436.54 74.3458C437.437 74.7117 438.442 74.8066 439.406 74.793C440.384 74.7795 441.348 74.6304 442.271 74.3458C443.154 74.0476 444.105 73.4376 444.145 72.4752Z" fill="black"/>
<defs>
<linearGradient id="paint0_linear" x1="376.907" y1="133.447" x2="376.907" y2="365" gradientUnits="userSpaceOnUse">
<stop stop-color="#DC5201"/>
<stop offset="1" stop-color="#752700"/>
</linearGradient>
<linearGradient id="paint1_linear" x1="376" y1="125" x2="376" y2="356.553" gradientUnits="userSpaceOnUse">
<stop stop-color="#012A6A"/>
<stop offset="1" stop-color="#012A6A" stop-opacity="0"/>
</linearGradient>
</defs>
</svg>
